<svg xmlns="http://www.w3.org/2000/svg" xmlns:xlink="http://www.w3.org/1999/xlink" viewBox="0 0 283 126"><defs><style>.adfc6445-ee6b-44f0-9eb2-d6d152cbe7e1{fill:none;}.b2e83597-ed7c-4034-9ee7-b75db31d652e{font-size:175px;font-family:BigShouldersDisplay-Bold, Big Shoulders Display;font-weight:700;}.a4b2b13e-274d-4329-ba51-e3369e470a1d,.b2e83597-ed7c-4034-9ee7-b75db31d652e,.b5285512-717f-46e8-afd5-af06410efa21,.bd5ea348-4bbe-4e87-bd19-2c56d43879aa{fill:#fff;}.eb1fd02b-7af7-42b4-92e3-9ff85020b961{letter-spacing:-0.01em;}.a2b35289-33c9-4198-b451-a300df33c47c{letter-spacing:0em;}.a5a0c1db-476e-44bf-93a8-0f58e15a0434{letter-spacing:-0.03em;}.a6bc3ee1-5899-4586-82a5-015121148e76{letter-spacing:-0.03em;}.b7699294-ccb2-47bb-8efb-e98ea95c9ab7{letter-spacing:-0.02em;}.a371305d-3649-4ea9-8a7e-e67ee4fd14b1{clip-path:url(#aeef2eb3-e4a9-414a-b02c-b0aed9e66331);}.b5285512-717f-46e8-afd5-af06410efa21,.bd5ea348-4bbe-4e87-bd19-2c56d43879aa{stroke:#fff;stroke-miterlimit:10;}.b5285512-717f-46e8-afd5-af06410efa21{stroke-width:3px;}.bd5ea348-4bbe-4e87-bd19-2c56d43879aa{stroke-width:0.5px;}</style><clipPath id="aeef2eb3-e4a9-414a-b02c-b0aed9e66331"><circle class="adfc6445-ee6b-44f0-9eb2-d6d152cbe7e1" cx="655.39" cy="112.41" r="85"/></clipPath></defs><title>Zasób 27</title><g id="a4b3ab77-7e12-47e5-956b-b6893397ed40" data-name="Warstwa 2"><g id="ac04a777-c3a0-419d-aa86-51919a90cbaf" data-name="Warstwa 1"><text class="b2e83597-ed7c-4034-9ee7-b75db31d652e" transform="translate(0 277.22)"><tspan class="eb1fd02b-7af7-42b4-92e3-9ff85020b961">F</tspan><tspan class="a2b35289-33c9-4198-b451-a300df33c47c" x="60.38" y="0">I</tspan><tspan class="a5a0c1db-476e-44bf-93a8-0f58e15a0434" x="95.55" y="0">F</tspan><tspan x="153.65" y="0">A D</tspan><tspan class="a6bc3ee1-5899-4586-82a5-015121148e76" x="340.37" y="0">r</tspan><tspan class="b7699294-ccb2-47bb-8efb-e98ea95c9ab7" x="389.37" y="0">a</tspan><tspan x="457.79" y="0">w</tspan></text><circle class="a4b2b13e-274d-4329-ba51-e3369e470a1d" cx="655.39" cy="112.41" r="84"/><path d="M655.39,29.41a83,83,0,1,1-83,83,83.1,83.1,0,0,1,83-83m0-2a85,85,0,1,0,85,85,85,85,0,0,0-85-85Z"/><g class="a371305d-3649-4ea9-8a7e-e67ee4fd14b1"><polygon points="678.1 126.42 654.89 140.86 631.18 127.34 630.67 99.4 653.88 84.97 677.6 98.48 678.1 126.42"/><polygon points="676.5 41.45 653.29 55.89 629.58 42.38 629.07 14.43 652.28 0 676 13.51 676.5 41.45"/><polygon points="750.1 79.58 726.89 94.01 703.18 80.5 702.67 52.55 725.88 38.12 749.6 51.63 750.1 79.58"/><polygon points="599.1 82.42 575.89 96.86 552.18 83.34 551.67 55.4 574.88 40.97 598.6 54.48 599.1 82.42"/><polygon points="608.1 173.42 584.89 187.86 561.18 174.34 560.67 146.4 583.88 131.97 607.6 145.48 608.1 173.42"/><polygon points="748.1 173.42 724.89 187.86 701.18 174.34 700.67 146.4 723.88 131.97 747.6 145.48 748.1 173.42"/><polygon points="679.76 214.06 656.55 228.5 632.83 214.99 632.33 187.04 655.54 172.61 679.25 186.12 679.76 214.06"/><line x1="598.6" y1="54.48" x2="629.58" y2="42.38"/><line x1="676.5" y1="41.45" x2="702.67" y2="52.55"/><line x1="653.29" y1="55.89" x2="653.88" y2="84.97"/><line x1="599.1" y1="82.42" x2="630.67" y2="99.4"/><line x1="677.6" y1="98.48" x2="703.18" y2="80.5"/><line x1="726.89" y1="94.01" x2="723.88" y2="131.97"/><line x1="700.67" y1="146.4" x2="678.1" y2="126.42"/><line x1="679.25" y1="186.12" x2="701.18" y2="174.35"/><line x1="655.54" y1="172.61" x2="654.89" y2="140.86"/><line x1="632.33" y1="187.04" x2="608.1" y2="173.42"/><line x1="607.6" y1="145.48" x2="631.18" y2="127.35"/><line x1="583.88" y1="131.97" x2="575.89" y2="96.86"/></g><polygon class="a4b2b13e-274d-4329-ba51-e3369e470a1d" points="653.88 87.29 633.17 100.19 633.17 126.16 635.06 101.33 653.88 87.29"/><path class="a4b2b13e-274d-4329-ba51-e3369e470a1d" d="M597.44,56l-.9-.61a97.39,97.39,0,0,0-21.15,39.29S583.53,70.84,597.44,56Z"/><polyline class="a4b2b13e-274d-4329-ba51-e3369e470a1d" points="576.83 138.23 583.7 133.75 605.68 146.33 583.92 135.2"/><path class="a4b2b13e-274d-4329-ba51-e3369e470a1d" d="M631.21,41.91V33.67S651.76,28.3,674.37,32c0,0-28.84-1.63-41.86,2.6"/><polyline class="a4b2b13e-274d-4329-ba51-e3369e470a1d" points="709.34 50.31 704.24 53.29 704.68 79.48 705.49 54.21"/><polyline class="a4b2b13e-274d-4329-ba51-e3369e470a1d" points="633.51 192.12 633.51 187.61 655.39 174.09 634.45 187.97"/><polyline class="a4b2b13e-274d-4329-ba51-e3369e470a1d" points="723.87 133.64 701.97 147.03 702.33 173.29 702.91 147.59"/><path class="b5285512-717f-46e8-afd5-af06410efa21" d="M564.89,132.66c-5.62-58.12,18.3-73.79,18.3-73.79-26.35,32.85-14.33,73.27-14.33,73.27Z"/><path class="bd5ea348-4bbe-4e87-bd19-2c56d43879aa" d="M563.63,134.23s-65.4-13.43-222.12,30.67c0,0,175.81-75,221-53.21,0,0-31.59-28-157.38,18.22,0,0,118-55.21,158.92-35.27"/><path class="bd5ea348-4bbe-4e87-bd19-2c56d43879aa" d="M570.81,78.89s-27.33-5.37-65.07,7.42c0,0,52.09-17.06,67.87-11.78"/></g></g></svg>