<svg id="fd1c2881-e0e8-426a-be00-91030a6e45bf" data-name="Warstwa 1" xmlns="http://www.w3.org/2000/svg" xmlns:xlink="http://www.w3.org/1999/xlink" viewBox="0 0 750.1 331.47"><defs><style>.acdbac8d-9933-4da8-b022-487bbb88e6b9,.fce0dead-59be-4a75-a9bc-3cbacc50e0e2{fill:none;}.fef5fc4c-4ebf-4246-b916-dcb634881802{font-size:175px;font-family:BigShouldersDisplay-Bold, Big Shoulders Display;font-weight:700;}.ef21419d-e449-47db-a2b9-2d9d0f84e96b{letter-spacing:-0.01em;}.fcc07da3-a1ca-4be5-9b0c-ad8055730f5b{letter-spacing:0em;}.b551ad6e-2d14-4383-ac0f-d4847f9db186{letter-spacing:-0.03em;}.ac46e3e7-585a-4c06-9e03-a27b03b2710e{letter-spacing:-0.03em;}.fcb3ff8a-a364-4b8c-ab64-5b1d598d10ac{letter-spacing:-0.02em;}.a8c45e69-fbd0-4605-a121-67b9b76f4d54,.b4be84da-a0ee-486c-abcb-e7208395d4df,.fce0dead-59be-4a75-a9bc-3cbacc50e0e2{stroke:#000;stroke-miterlimit:10;}.fce0dead-59be-4a75-a9bc-3cbacc50e0e2{stroke-width:2px;}.b027a68a-bc18-4ca7-b2c2-af8d9e2282a3{fill:#fff;}.ba63e48d-bfbe-466e-b60c-aada9e9505e8{clip-path:url(#f94d0d7e-e765-4ca8-aca3-e37647295a3e);}.b4be84da-a0ee-486c-abcb-e7208395d4df{stroke-width:3px;}.a8c45e69-fbd0-4605-a121-67b9b76f4d54{stroke-width:0.5px;}</style><clipPath id="f94d0d7e-e765-4ca8-aca3-e37647295a3e" transform="translate(-589.81 -446.52)"><circle class="acdbac8d-9933-4da8-b022-487bbb88e6b9" cx="1245.19" cy="558.93" r="85"/></clipPath></defs><title>Bez nazwy-1</title><text class="fef5fc4c-4ebf-4246-b916-dcb634881802" transform="translate(0 277.22)"><tspan class="ef21419d-e449-47db-a2b9-2d9d0f84e96b">F</tspan><tspan class="fcc07da3-a1ca-4be5-9b0c-ad8055730f5b" x="60.38" y="0">I</tspan><tspan class="b551ad6e-2d14-4383-ac0f-d4847f9db186" x="95.55" y="0">F</tspan><tspan x="153.65" y="0">A D</tspan><tspan class="ac46e3e7-585a-4c06-9e03-a27b03b2710e" x="340.37" y="0">r</tspan><tspan class="fcb3ff8a-a364-4b8c-ab64-5b1d598d10ac" x="389.37" y="0">a</tspan><tspan x="457.79" y="0">w</tspan></text><path class="fce0dead-59be-4a75-a9bc-3cbacc50e0e2" d="M1090.17,484.13" transform="translate(-589.81 -446.52)"/><circle class="b027a68a-bc18-4ca7-b2c2-af8d9e2282a3" cx="655.39" cy="112.41" r="84"/><path d="M1245.19,475.93a83,83,0,1,1-83,83,83.1,83.1,0,0,1,83-83m0-2a85,85,0,1,0,85,85,85,85,0,0,0-85-85Z" transform="translate(-589.81 -446.52)"/><g class="ba63e48d-bfbe-466e-b60c-aada9e9505e8"><polygon points="678.1 126.42 654.89 140.86 631.18 127.34 630.67 99.4 653.88 84.97 677.6 98.48 678.1 126.42"/><polygon points="676.5 41.45 653.29 55.89 629.58 42.38 629.07 14.43 652.28 0 676 13.51 676.5 41.45"/><polygon points="750.1 79.58 726.89 94.01 703.18 80.5 702.67 52.55 725.88 38.12 749.6 51.63 750.1 79.58"/><polygon points="599.1 82.42 575.89 96.86 552.18 83.34 551.67 55.4 574.88 40.97 598.6 54.48 599.1 82.42"/><polygon points="608.1 173.42 584.89 187.86 561.18 174.34 560.67 146.4 583.88 131.97 607.6 145.48 608.1 173.42"/><polygon points="748.1 173.42 724.89 187.86 701.18 174.34 700.67 146.4 723.88 131.97 747.6 145.48 748.1 173.42"/><polygon points="679.76 214.06 656.55 228.5 632.83 214.99 632.33 187.04 655.54 172.61 679.25 186.12 679.76 214.06"/><line x1="598.6" y1="54.48" x2="629.58" y2="42.38"/><line x1="676.5" y1="41.45" x2="702.67" y2="52.55"/><line x1="653.29" y1="55.89" x2="653.88" y2="84.97"/><line x1="599.1" y1="82.42" x2="630.67" y2="99.4"/><line x1="677.6" y1="98.48" x2="703.18" y2="80.5"/><line x1="726.89" y1="94.01" x2="723.88" y2="131.97"/><line x1="700.67" y1="146.4" x2="678.1" y2="126.42"/><line x1="679.25" y1="186.12" x2="701.18" y2="174.35"/><line x1="655.54" y1="172.61" x2="654.89" y2="140.86"/><line x1="632.33" y1="187.04" x2="608.1" y2="173.42"/><line x1="607.6" y1="145.48" x2="631.18" y2="127.35"/><line x1="583.88" y1="131.97" x2="575.89" y2="96.86"/></g><polygon class="b027a68a-bc18-4ca7-b2c2-af8d9e2282a3" points="653.88 87.29 633.16 100.19 633.16 126.16 635.06 101.33 653.88 87.29"/><path class="b027a68a-bc18-4ca7-b2c2-af8d9e2282a3" d="M1187.24,502.48l-.89-.61a97.34,97.34,0,0,0-21.16,39.29S1173.34,517.36,1187.24,502.48Z" transform="translate(-589.81 -446.52)"/><polyline class="b027a68a-bc18-4ca7-b2c2-af8d9e2282a3" points="576.83 138.23 583.7 133.75 605.68 146.33 583.92 135.2"/><path class="b027a68a-bc18-4ca7-b2c2-af8d9e2282a3" d="M1221,488.43v-8.24s20.55-5.37,43.16-1.63c0,0-28.85-1.63-41.86,2.6" transform="translate(-589.81 -446.52)"/><polyline class="b027a68a-bc18-4ca7-b2c2-af8d9e2282a3" points="709.34 50.31 704.24 53.29 704.68 79.48 705.49 54.21"/><polyline class="b027a68a-bc18-4ca7-b2c2-af8d9e2282a3" points="633.51 192.12 633.51 187.61 655.39 174.09 634.45 187.97"/><polyline class="b027a68a-bc18-4ca7-b2c2-af8d9e2282a3" points="723.87 133.64 701.97 147.03 702.33 173.29 702.91 147.59"/><path class="b4be84da-a0ee-486c-abcb-e7208395d4df" d="M1154.7,579.18c-5.62-58.12,18.3-73.79,18.3-73.79-26.35,32.85-14.33,73.27-14.33,73.27Z" transform="translate(-589.81 -446.52)"/><path class="a8c45e69-fbd0-4605-a121-67b9b76f4d54" d="M1153.43,580.75S1088,567.32,931.32,611.42c0,0,175.81-75,221-53.21,0,0-31.6-28.05-157.38,18.22,0,0,118-55.21,158.91-35.27" transform="translate(-589.81 -446.52)"/><path class="a8c45e69-fbd0-4605-a121-67b9b76f4d54" d="M1160.62,525.41s-27.34-5.37-65.07,7.42c0,0,52.08-17.06,67.87-11.78" transform="translate(-589.81 -446.52)"/></svg>